<?xml version="1.0" encoding="UTF-8"?>
<svg width="179px" height="47px" viewBox="0 0 179 47" version="1.1" xmlns="http://www.w3.org/2000/svg" xmlns:xlink="http://www.w3.org/1999/xlink">
    <!-- Generator: Sketch 52.6 (67491) - http://www.bohemiancoding.com/sketch -->
    <title>logo copy</title>
    <desc>Created with Sketch.</desc>
    <g id="Designs" stroke="none" stroke-width="1" fill="none" fill-rule="evenodd">
        <g id="Desktop" transform="translate(-30.000000, -131.000000)">
            <g id="//HeaderSection">
                <g id="logo-copy" transform="translate(30.000000, 131.000000)">
                    <path d="M156,32 L156,7 L170.638375,7 C171.601307,7 172.382113,7.80086806 172.382113,8.78883486 L172.382113,12.0846693 L161.678778,12.0846693 L161.678778,16.8160354 L170.372243,16.8160354 C171.158603,16.8160354 171.79593,17.4701687 171.79593,18.2767352 L171.79593,21.6528226 L161.678778,21.6528226 L161.678778,26.84505 L171.363177,26.84505 C172.267329,26.84505 173,27.5970064 173,28.5244273 L173,32 L156,32 Z" id="Fill-9" fill="#000000"></path>
                    <path d="M145.41333,32 L139.410062,32 L130,7 L135.450776,7 C136.22025,7 136.902837,7.49766364 137.141778,8.23323709 L142.5,24.7249934 L142.639539,24.7249934 L147.964471,8.23632375 C148.202467,7.49908825 148.885762,7 149.656416,7 L155,7 L145.41333,32 Z" id="Fill-7" fill="#000000"></path>
                    <path d="M110,32 L106.745787,32 L101.171477,22.0764066 L99.0569653,22.0764066 L99.0569653,32 L93,32 L93,7 L102.792114,7 C104.025213,7 105.228802,7.1229913 106.400929,7.37087338 C107.5733,7.61661855 108.625922,8.03592866 109.556843,8.62381757 C110.487765,9.21218136 111.231624,9.98883106 111.788421,10.9547164 C112.343023,11.9201269 112.622519,13.120598 112.622519,14.5558922 C112.622519,16.2521274 112.151327,17.6762622 111.206991,18.828534 C110.264607,19.9829427 108.959561,20.8058922 107.28917,21.2995194 L111.612899,28.1937448 L120.593738,7 L125.308514,7 C126.038827,7 126.697428,7.43521825 126.977562,8.10288531 L137,32 L130.223558,32 L128.261666,27.0907951 L118.487941,27.0907951 L116.634697,32 L110,32 Z M123.446875,13.6733465 L120.236855,22.2540079 L126.585663,22.2540079 L123.446875,13.6733465 Z M106.491168,14.6610759 C106.491168,14.0729495 106.364834,13.5968925 106.108019,13.2324298 C105.853156,12.8682046 105.526346,12.5851822 105.12515,12.3852619 C104.723953,12.1855792 104.275443,12.0495289 103.777179,11.9794856 C103.278915,11.9068305 102.798943,11.8719276 102.336775,11.8719276 L99.0208699,11.8719276 L99.0208699,17.6983437 L101.971674,17.6983437 C102.483108,17.6983437 103.004053,17.6589295 103.540364,17.5753524 C104.074723,17.4920127 104.559329,17.3450405 104.99662,17.1344357 C105.434156,16.921694 105.792428,16.6163526 106.071924,16.2148501 C106.35142,15.8152471 106.491168,15.2976389 106.491168,14.6610759 Z" id="Combined-Shape" fill="#000000"></path>
                    <path d="M85.8032012,24.1610854 C85.8032012,23.1253941 85.4046337,22.4076283 84.6074987,22.0061258 C83.8103637,21.6065228 82.7476795,21.40684 81.4189588,21.40684 L77.9782688,21.40684 L77.9782688,27.1256981 L81.455015,27.1256981 C81.9390942,27.1256981 82.4390089,27.0862839 82.9591444,27.0029442 C83.4792798,26.9217414 83.9499598,26.7747692 84.3733769,26.5617901 C84.7943577,26.3490484 85.1388408,26.0505926 85.4046337,25.6621491 C85.6704266,25.2737055 85.8032012,24.7731926 85.8032012,24.1610854 M84.97001,14.2372545 C84.97001,13.3903241 84.6389261,12.7737055 83.9748094,12.3850245 C83.3082564,11.9968184 82.3242624,11.8014094 81.0203913,11.8014094 L77.9782688,11.8014094 L77.9782688,16.9563595 L81.3110337,16.9563595 C82.47068,16.9563595 83.3689186,16.7281845 84.0108656,16.2696976 C84.6503764,15.8085989 84.97001,15.1328591 84.97001,14.2372545 M92,24.7249934 C92,26.0923812 91.7208079,27.2401417 91.1668088,28.1682749 C90.6106171,29.0987824 89.8741443,29.844803 88.9554413,30.4110854 C88.0367384,30.9749934 86.9920822,31.3810071 85.8212293,31.6291266 C84.6503764,31.8770087 83.4478525,32 82.2160937,32 L72,32 L72,7 L82.2160937,7 C83.2069092,7 84.2201379,7.10067242 85.2604088,7.3003552 C86.2984871,7.50003799 87.2396034,7.84028226 88.0864375,8.32322494 C88.9308354,8.80593018 89.6198017,9.45982601 90.1511438,10.2827755 C90.6827296,11.1078619 90.9482788,12.15495 90.9482788,13.4254644 C90.9482788,14.8146963 90.560918,15.9624568 89.7886325,16.8685085 C89.0163471,17.7750351 88.0009258,18.428931 86.7467537,18.8282965 L86.7467537,18.8985773 C87.46934,19.0170573 88.1517285,19.2343103 88.7934319,19.5524731 C89.4329427,19.8708734 89.9891344,20.2768871 90.4598144,20.7705144 C90.9302507,21.2643791 91.3042122,21.841346 91.5834044,22.5021274 C91.8601603,23.1602971 92,23.9020438 92,24.7249934" id="Fill-1" fill="#000000"></path>
                    <g id="Group-17" fill="#000000">
                        <path d="M60.5786004,30.2555474 C59.3407754,30.9070062 57.8950111,31.4368464 56.2401111,31.8472485 C54.5852111,32.2561969 52.7821932,32.4606711 50.8308182,32.4606711 C48.8069396,32.4606711 46.9443396,32.1355474 45.2427789,31.4853 C43.5397825,30.8338412 42.0767896,29.9185526 40.8504504,28.7372536 C39.6243504,27.5559546 38.6667289,26.1411093 37.9766289,24.4888412 C37.2850932,22.8385113 36.9407611,21.0011505 36.9407611,18.977001 C36.9407611,16.9276557 37.2922718,15.0711557 37.9940968,13.4089546 C38.6959218,11.7453 39.6662254,10.3302124 40.9042896,9.16078454 C42.1423539,7.99256804 43.5938611,7.09375361 45.2602468,6.46724845 C46.9268718,5.84050103 48.7239075,5.52724845 50.6520718,5.52724845 C52.6513039,5.52724845 54.5081611,5.83444433 56.2226432,6.44932062 C57.9371254,7.06419691 59.3290504,7.88960412 60.3998539,8.9253 L56.5437646,13.3723722 C55.9496182,12.6736711 55.1635646,12.1011918 54.1872789,11.6556608 C53.2107539,11.2098876 52.1035789,10.9862742 50.8671896,10.9862742 C49.7949504,10.9862742 48.8069396,11.1846918 47.9031575,11.5834649 C46.9979396,11.9805423 46.2118861,12.5350938 45.5464325,13.245666 C44.8795432,13.957934 44.3622075,14.8005423 43.9932289,15.777367 C43.6242504,16.7527381 43.4397611,17.8192021 43.4397611,18.977001 C43.4397611,20.1566041 43.6053468,21.2424495 43.9393896,22.2294495 C44.2722361,23.2179031 44.7661218,24.0682639 45.4215254,24.7788361 C46.0752539,25.489166 46.8845182,26.0439598 47.8493182,26.4410371 C48.8141182,26.839568 49.9141146,27.0384701 51.1519396,27.0384701 C51.8666861,27.0384701 52.5453004,26.9839598 53.1875432,26.8751814 C53.8295468,26.7678567 54.4253682,26.5926969 54.9730932,26.3513979 L54.9730932,21.6882227 L50.1522039,21.6882227 L50.1522039,16.6982278 L58.5599861,16.6982278 C59.6748182,16.6982278 60.5786004,17.6132742 60.5786004,18.7422433 L60.5786004,30.2555474 Z M34.2543004,31.8104237 L28.1127932,31.8104237 L28.1127932,6.21407835 L32.2356861,6.21407835 C33.3505182,6.21407835 34.2543004,7.12912474 34.2543004,8.25785155 L34.2543004,31.8104237 Z M25.0549611,27.8885887 C24.5072361,28.8402175 23.7807646,29.6053 22.8769825,30.1833515 C21.9717646,30.7616454 20.9416396,31.1778619 19.7880432,31.431032 C18.6330111,31.6839598 17.4487861,31.8104237 16.2341718,31.8104237 L6.16526821,31.8104237 L6.16526821,6.21407835 L16.2341718,6.21407835 C17.2104575,6.21407835 18.2101932,6.31704227 19.2343361,6.52151649 C20.2572825,6.72599072 21.1857111,7.07606804 22.0196218,7.57029485 C22.8523361,8.06452165 23.5307111,8.73245464 24.0552254,9.57700103 C24.5783039,10.4198515 24.8400825,11.4923722 24.8400825,12.7940784 C24.8400825,14.2166763 24.4591396,15.3919186 23.6979718,16.3188361 C22.9351289,17.2472072 21.9353932,17.9163515 20.6975682,18.3253 L20.6975682,18.3974959 C21.4123146,18.5181454 22.0851861,18.7417588 22.7157039,19.0666402 C23.3462218,19.3917639 23.8939468,19.8082227 24.3588789,20.3140784 C24.8223754,20.8201763 25.1915932,21.4115526 25.4646182,22.0853 C25.7393182,22.760501 25.8759504,23.5195268 25.8759504,24.3626196 C25.8759504,25.7614753 25.6012504,26.9355062 25.0549611,27.8885887 Z M62.6039146,0.0955989691 L0.444425357,0.0997175258 C0.212078929,0.0999597938 0.0237610714,0.290624742 0.0235217857,0.526351546 L7.17857143e-05,46.3346351 C-0.0001675,46.7101505 0.448014643,46.8988773 0.710989643,46.6340784 L9.08527179,38.2019392 C9.19534321,38.0909804 9.3446575,38.0284753 9.49995393,38.0284753 L62.6039146,38.0284753 C64.9309682,38.0284753 66.8177361,36.118434 66.8177361,33.7623773 L66.8177361,4.36193918 C66.8177361,2.0155732 64.9213968,0.0955989691 62.6039146,0.0955989691 Z" id="Fill-15"></path>
                    </g>
                    <path d="M18.7765231,21.6298027 C17.9627745,21.2109268 16.8762874,21 15.5185507,21 L12,21 L12,27 L15.5547835,27 C16.0488894,27 16.56136,26.9560776 17.0916987,26.8687291 C17.6222856,26.7828694 18.1044795,26.6290169 18.5367912,26.4061789 C18.967862,26.1845817 19.3205112,25.8696803 19.5917608,25.4629637 C19.8630103,25.0547583 20,24.5301708 20,23.8884569 C20,22.8020596 19.5917608,22.0499194 18.7765231,21.6298027" id="Fill-11" fill="#000000"></path>
                    <path d="M18.0392014,15.3310231 C18.6796528,14.8864919 19,14.2301372 19,13.361959 C19,12.5399091 18.6679861,11.9406986 18.0022569,11.5645568 C17.3382292,11.1881856 16.3523958,11 15.0462153,11 L12,11 L12,16 L15.3369097,16 C16.4984722,16 17.39875,15.7769312 18.0392014,15.3310231" id="Fill-13" fill="#000000"></path>
                    <circle id="Oval" stroke="#000000" stroke-width="0.5" cx="176.02091" cy="4.02091017" r="2.02091017"></circle>
                    <path d="M176.072307,3 C176.580901,3 176.831425,3.28674449 176.831425,3.67460415 C176.831425,4.01416999 176.603539,4.19829014 176.463185,4.25563904 L176.873682,5.0600328 L176.321322,5.0600328 L175.972701,4.32506139 L175.690484,4.32506139 L175.690484,5.0600328 L175.2,5.0600328 L175.2,3 L176.072307,3 Z M175.690484,3.97191291 L175.993829,3.97191291 C176.187005,3.97191291 176.316794,3.87381611 176.316794,3.67913169 C176.316794,3.47539218 176.17644,3.37427702 175.998357,3.37427702 L175.690484,3.37427702 L175.690484,3.97191291 Z" id="R" fill="#000000"></path>
                </g>
            </g>
        </g>
    </g>
</svg>